# AST/ASF file generated using VICON BodyLanguage
# -----------------------------------------------
:version 1.10
:name VICON
:units
  mass 1.0
  length 0.45
  angle deg
:documentation
   .ast/.asf automatically generated from VICON data using
   VICON BodyBuilder and BodyLanguage model FoxedUp or BRILLIANT.MOD
:root
   order TX TY TZ RX RY RZ
   axis XYZ
   position 0 0 0  
   orientation 0 0 0 
:bonedata
  begin
     id 1 
     name lhipjoint
     direction 0.627412 -0.730575 0.26947 
     length 2.49821 
     axis 0 0 0  XYZ
  end
  begin
     id 2 
     name lfemur
     direction 0.34202 -0.939693 0  
     length 6.89165  
     axis 0 0 20  XYZ
    dof rx ry rz
    limits (-160.0 20.0)
           (-70.0 70.0)
           (-60.0 70.0)
  end
  begin
     id 3 
     name ltibia
     direction 0.34202 -0.939693 0   
     length 7.91287   
     axis 0 0 20   XYZ
    dof rx
    limits (-10.0 170.0)
  end
  begin
     id 4 
     name lfoot
     direction 0.0941675 -0.258723 0.96135   
     length 2.16919   
     axis -90 7.62852e-016 20   XYZ
    dof rx rz
    limits (-45.0 90.0)
           (-70.0 20.0)
  end
  begin
     id 5 
     name ltoes
     direction 1.5347e-011 -4.21941e-011 1   
     length 1.08535   
     axis -90 7.62852e-016 20   XYZ
    dof rx
    limits (-90.0 20.0)
  end
  begin
     id 6 
     name rhipjoint
     direction -0.614241 -0.740361 0.27308   
     length 2.46519  
     axis 0 0 0  XYZ 
  end
  begin
     id 7 
     name rfemur
     direction -0.34202 -0.939693 0   
     length 7.27512   
     axis 0 0 -20   XYZ
    dof rx ry rz
    limits (-160.0 20.0)
           (-70.0 70.0)
           (-70.0 60.0)
  end
  begin
     id 8 
     name rtibia
     direction -0.34202 -0.939693 0   
     length 7.89523   
     axis 0 0 -20   XYZ
    dof rx
    limits (-10.0 170.0)
 end
 begin
     id 9 
     name rfoot
     direction -0.0860444 -0.236405 0.967837   
     length 2.29534  
     axis -90 -7.62852e-016 -20   XYZ
    dof rx rz
    limits (-45.0 90.0)
           (-20.0 70.0)
  end
  begin
     id 10 
     name rtoes
     direction -1.53608e-011 -4.21861e-011 1   
     length 1.14915   
     axis -90 -7.62852e-016 -20   XYZ
    dof rx
    limits (-90.0 20.0)
  end
  begin
     id 11 
     name lowerback
     direction -0.00734074 0.997215 -0.0742143   
     length 2.13469   
     axis 0 0 0   XYZ
    dof rx ry rz
    limits (-20.0 45.0)
           (-30.0 30.0)
           (-30.0 30.0)
  end
  begin
     id 12 
     name upperback
     direction 0.0285728 0.99958 -0.00488656   
     length 2.13416   
     axis 0 0 0   XYZ
    dof rx ry rz
    limits (-20.0 45.0)
           (-30.0 30.0)
           (-30.0 30.0)
  end
  begin
     id 13 
     name thorax
     direction 0.0316844 0.999056 0.0297249   
     length 2.14463   
     axis 0 0 0   XYZ
    dof rx ry rz
    limits (-20.0 45.0)
           (-30.0 30.0)
           (-30.0 30.0)
  end
  begin
     id 14 
     name lowerneck
     direction -0.0281545 0.996802 0.0747864   
     length 1.79004   
     axis 0 0 0   XYZ
    dof rx ry rz
    limits (-20.0 45.0)
           (-30.0 30.0)
           (-30.0 30.0)
  end
  begin
     id 15 
     name upperneck
     direction -0.00100185 0.982732 -0.185031   
     length 1.79988   
     axis 0 0 0   XYZ
    dof rx ry rz
    limits (-20.0 45.0)
           (-30.0 30.0)
           (-30.0 30.0)
  end
  begin
     id 16
     name head
     direction 0.00403747 0.997539 -0.0700022  
     length 1.81696  
     axis 0 0 0   XYZ
    dof rx ry rz
    limits (-20.0 45.0)
           (-30.0 30.0)
           (-30.0 30.0)
  end
  begin
     id 17 
     name lclavicle
     direction 0.959882 0.242905 -0.140082  
     length 3.87755  
     axis 0 0 0   XYZ
    dof ry rz
    limits (-20.0 10.0)
           (0.0 20.0)
  end
  begin
     id 18 
     name lhumerus
     direction 1 -4.4895e-011 3.76166e-027   
     length 5.14601   
     axis 180 -30 -90   XYZ
    dof rx ry rz
    limits (-60.0 90.0)
           (-90.0 90.0)
           (-90.0 90.0)
  end
  begin
     id 19
     name lradius
     direction 1 -4.48966e-011 -3.24039e-027   
     length 3.64452   
     axis 180 -30 -90   XYZ
    dof rx
    limits (-10.0 170.0)
  end
  begin
     id 20
     name lwrist
     direction 1 -4.48999e-011 2.57119e-027   
     length 1.82226   
     axis -1.61769e-015 90 90   XYZ
    dof ry
    limits (-180.0 0.0)
 end
  begin
     id 21 
     name lhand
     direction 1 -4.48961e-011 5.13984e-027   
     length 0.56228   
     axis -3.27988e-015 90 90   XYZ
    dof rx rz
    limits (-90.0 90.0)
           (-45.0 45.0)
  end
  begin
     id 22 
     name lfingers
     direction 1 -4.48991e-011 1.02836e-026   
     length 0.453325   
     axis -6.5598e-015 90 90   XYZ
    dof rx
    limits (0.0 90.0)
  end
  begin
     id 23
     name lthumb
     direction 0.707107 -6.34956e-011 0.707107   
     length 0.650886   
     axis -90 45 2.19363e-014   XYZ
    dof rx rz
    limits (-45.0 45.0)
           (-45.0 45.0)
  end
  begin
     id 24 
     name rclavicle
     direction -0.929201 0.345171 -0.132073   
     length 3.55416  
     axis 0 0 0   XYZ 
    dof ry rz
    limits (-10.0 20.0)
           (-20.0 0.0)
  end
  begin
     id 25 
     name rhumerus
     direction -1 -4.48979e-011 4.53734e-027  
     length 5.33913   
     axis 180 30 90   XYZ
    dof rx ry rz
    limits (-90.0 60.0)
           (-90.0 90.0)
           (-90.0 90.0)
  end
  begin
     id 26 
     name rradius
     direction -1 -4.4896e-011 -2.24007e-027   
     length 3.56478   
     axis 180 30 90   XYZ
    dof rx
    limits (-10.0 170.0)
  end
  begin
     id 27 
     name rwrist
     direction -1 -4.48923e-011 2.56866e-027   
     length 1.78239   
     axis -1.61769e-015 -90 -90   XYZ
    dof ry
    limits (-180.0 0.0)
  end
  begin
     id 28
     name rhand
     direction -1 -4.48914e-011 5.13667e-027   
     length 0.857474   
     axis -3.27988e-015 -90 -90   XYZ
    dof rx rz
    limits (-90.0 90.0)
           (-45.0 45.0)
  end
  begin
     id 29
     name rfingers
     direction -1 -4.49112e-011 1.02998e-026   
     length 0.691318   
     axis -6.5598e-015 -90 -90   XYZ
    dof rx
    limits (0.0 90.0)
  end
  begin
     id 30
     name rthumb
     direction -0.707107 -6.34979e-011 0.707107   
     length 0.992598   
     axis -90 -45 -2.19363e-014   XYZ
    dof rx rz
    limits (-45.0 45.0)
           (-45.0 45.0)
  end
:hierarchy
  begin
    root lhipjoint rhipjoint lowerback
    lhipjoint lfemur
    lfemur ltibia
    ltibia lfoot
    lfoot ltoes
    rhipjoint rfemur
    rfemur rtibia
    rtibia rfoot
    rfoot rtoes
    lowerback upperback
    upperback thorax
    thorax lowerneck lclavicle rclavicle
    lowerneck upperneck
    upperneck head
    lclavicle lhumerus
    lhumerus lradius
    lradius lwrist
    lwrist lhand lthumb
    lhand lfingers
    rclavicle rhumerus
    rhumerus rradius
    rradius rwrist
    rwrist rhand rthumb
    rhand rfingers
  end

#!OML:ASF F:\VICON\USERDATA\INSTALL\Justin4\Justin4.ASF
:FULLY-SPECIFIED
:DEGREES
1131
root -1.11035 17.3075 3.83042 6.54245 -36.1978 -2.20802
lowerback 11.7036 0.720156 -1.14763
upperback 2.11816 0.863166 1.69273
thorax -4.38744 0.437621 2.28519
lowerneck -14.2193 4.89672 -3.43971
upperneck 14.7036 7.53467 -0.920702
head 6.7357 3.33864 0.995779
rclavicle -1.0297e-013 3.79679e-014
rhumerus -17.3413 -0.996231 -85.7038
rradius 133.914
rwrist -1.19656
rhand -14.059 22.1154
rfingers 7.12502
rthumb 12.0722 -7.51636
lclavicle -1.0297e-013 3.79679e-014
lhumerus 2.91803 -3.17314 84.5759
lradius 135.27
lwrist 2.35874
lhand -14.2325 12.2925
lfingers 7.12502
lthumb 11.9049 41.934
rfemur -5.14185 -0.741396 25.9378
rtibia 44.0364
rfoot -17.8264 -5.33325
rtoes -15.5619
lfemur -34.2292 -3.60357 -3.58753
ltibia 47.8672
lfoot -1.16868 16.0051
ltoes -20.9426
1132
root -1.0495 17.198 3.9596 6.72627 -36.0991 -2.26958
lowerback 10.7672 0.592455 -0.46538
upperback 2.4473 0.746321 1.10788
thorax -3.50483 0.362392 1.31262
lowerneck -14.3203 4.80322 -3.10159
upperneck 14.5064 7.33484 -0.927268
head 6.70419 3.26542 0.920522
rclavicle 1.33807e-014 -7.45443e-015
rhumerus -16.9996 -1.47024 -86.119
rradius 133.834
rwrist -0.785635
rhand -13.7768 21.8582
rfingers 7.12502
rthumb 12.3443 -7.75737
lclavicle 1.33807e-014 -7.45443e-015
lhumerus 3.78019 -3.05815 84.1738
lradius 134.857
lwrist 2.26527
lhand -14.3872 11.6621
lfingers 7.12502
lthumb 11.7557 41.3122
rfemur -4.05497 0.415592 26.3667
rtibia 43.032
rfoot -19.7344 -7.60185
rtoes -11.7177
lfemur -34.8238 -4.56789 -2.85122
ltibia 47.5719
lfoot -0.315948 14.031
ltoes -22.969
1133
root -0.983736 17.0856 4.10047 6.75227 -36.358 -2.39333
lowerback 10.459 0.64874 -0.0531366
upperback 2.50621 0.854709 0.851719
thorax -3.26656 0.411864 0.80248
lowerneck -14.3434 4.70872 -3.16416
upperneck 14.6906 7.22471 -0.916581
head 6.76641 3.20409 0.927595
rclavicle -5.28891e-014 1.72042e-014
rhumerus -17.0675 -1.79964 -85.8388
rradius 133.904
rwrist -0.728443
rhand -13.4601 21.6133
rfingers 7.12502
rthumb 12.6496 -7.98361
lclavicle -5.28891e-014 1.72042e-014
lhumerus 4.05563 -3.232 84.2288
lradius 134.752
lwrist 1.89828
lhand -14.4791 12.4773
lfingers 7.12502
lthumb 11.6671 42.1325
rfemur -3.11184 1.40979 26.597
rtibia 42.4295
rfoot -21.3246 -10.4
rtoes -11.1661
lfemur -35.0886 -4.86302 -2.35223
ltibia 47.8949
lfoot -0.215296 11.5724
ltoes -27.8369
1134
root -0.905805 16.9617 4.23943 6.86079 -36.8826 -2.79258
lowerback 10.628 0.612261 0.141006
upperback 2.15944 0.84685 1.15925
thorax -3.72232 0.409435 1.01044
lowerneck -13.3153 4.89202 -4.08532
upperneck 14.6933 7.61019 -0.916137
head 6.55306 3.34633 1.07799
rclavicle 1.57288e-014 -1.35671e-014
rhumerus -17.7875 -0.919329 -84.842
rradius 133.903
rwrist -1.01515
rhand -13.7676 21.6408
rfingers 7.12502
rthumb 12.3532 -7.97423
lclavicle 1.57288e-014 -1.35671e-014
lhumerus 3.2443 -2.6374 84.9732
lradius 134.88
lwrist 1.40396
lhand -14.3323 13.3935
lfingers 7.12502
lthumb 11.8087 43.0406
rfemur -2.46877 2.28839 26.8921
rtibia 42.2424
rfoot -22.3374 -13.4093
rtoes -14.3067
lfemur -35.1866 -4.57689 -1.86157
ltibia 48.8179
lfoot -1.78937 9.94158
ltoes -31.465
1135
root -0.817805 16.8332 4.38508 6.78336 -37.6825 -2.96374
lowerback 10.7893 0.894052 0.493747
upperback 1.84997 1.27013 1.20605
thorax -4.13471 0.616144 0.797896
lowerneck -12.4067 4.81993 -4.64451
upperneck 14.7732 7.56443 -0.893335
head 6.40304 3.29981 1.14309
rclavicle 8.35641e-014 4.47266e-015
rhumerus -18.6107 -0.775502 -83.827
rradius 133.945
rwrist -1.16552
rhand -13.701 21.5049
rfingers 7.12502
rthumb 12.4174 -8.10627
lclavicle 8.35641e-014 4.47266e-015
lhumerus 2.68567 -2.8666 85.6929
lradius 134.865
lwrist 0.923659
lhand -14.6537 14.0271
lfingers 7.12502
lthumb 11.4987 43.6917
rfemur -1.92805 3.16071 26.7531
rtibia 42.3883
rfoot -23.239 -15.4252
rtoes -16.664
lfemur -35.0805 -4.28233 -1.72944
ltibia 50.1814
lfoot -3.64422 8.81855
ltoes -35.5767
1136
root -0.725046 16.712 4.53586 6.34235 -38.575 -2.59371
lowerback 10.9553 1.20859 0.442808
upperback 1.57637 1.68798 1.17111
thorax -4.51762 0.82362 0.7245
lowerneck -11.6393 4.71039 -5.3233
upperneck 14.9527 7.46451 -0.712545
head 6.29936 3.22865 1.27873
rclavicle 1.37807e-013 -2.40529e-014
rhumerus -19.3852 -0.637581 -82.7158
rradius 134.127
rwrist -1.65615
rhand -13.1647 21.3632
rfingers 7.12502
rthumb 12.9344 -8.21597
lclavicle 1.37807e-013 -2.40529e-014
lhumerus 2.41911 -1.16 86.4986
lradius 134.194
lwrist 5.57253
lhand -11.9841 7.00757
lfingers 7.12502
lthumb 14.0724 36.5111
rfemur -1.51043 3.76367 25.8861
rtibia 42.9175
rfoot -24.3831 -16.5783
rtoes -16.622
lfemur -34.613 -3.94069 -2.35888
ltibia 51.8103
lfoot -5.72202 7.6306
ltoes -43.9559
1137
root -0.640586 16.6337 4.69299 5.67652 -39.4752 -1.90519
lowerback 11.1447 1.33483 -0.0242026
upperback 1.50521 1.79954 1.10954
thorax -4.71091 0.886157 0.901818
lowerneck -11.5307 4.86419 -5.64698
upperneck 15.1059 7.74409 -0.810678
head 6.31631 3.3317 1.3212
rclavicle 3.2054e-014 -1.64991e-014
rhumerus -19.5531 0.0900651 -81.9151
rradius 134.19
rwrist -2.12973
rhand -13.3487 21.4626
rfingers 7.12502
rthumb 12.7571 -8.12766
lclavicle 3.2054e-014 -1.64991e-014
lhumerus 1.71681 -1.5695 86.8819
lradius 134.648
lwrist 2.80668
lhand -13.796 11.1925
lfingers 7.12502
lthumb 12.3258 40.8092
rfemur -1.2238 3.98439 24.5154
rtibia 43.7367
rfoot -25.6231 -17.1444
rtoes -16.3309
lfemur -34.0538 -3.29479 -3.55206
ltibia 53.2317
lfoot -7.66046 7.31881
ltoes -45.9395
1138
root -0.566528 16.5702 4.84327 4.91062 -40.5736 -1.12794
lowerback 11.3281 1.61888 -0.523006
upperback 1.60998 2.09895 0.826645
thorax -4.71538 1.03918 0.83904
lowerneck -12.072 4.95242 -5.27544
upperneck 15.45 7.91027 -1.16723
head 6.54634 3.38368 1.1894
rclavicle 6.0679e-014 -5.36719e-015
rhumerus -19.3317 0.399763 -81.609
rradius 134.16
rwrist -2.29066
rhand -13.4805 21.2959
rfingers 7.12502
rthumb 12.63 -8.3023
lclavicle 6.0679e-014 -5.36719e-015
lhumerus 1.55466 -1.74472 86.8762
lradius 134.867
lwrist 1.6389
lhand -14.4246 12.5525
lfingers 7.12502
lthumb 11.7197 42.2047
rfemur -1.23443 4.24327 23.019
rtibia 44.9033
rfoot -26.1275 -17.6437
rtoes -19.2285
lfemur -33.2206 -1.80426 -4.99825
ltibia 53.9968
lfoot -8.90081 6.92065
ltoes -48.7292
1139
root -0.503416 16.511 4.98521 3.89528 -41.6463 0.0750637
lowerback 11.5306 2.13605 -1.3345
upperback 1.76541 2.65489 0.343447
thorax -4.68962 1.32115 0.70206
lowerneck -13.0983 4.84918 -4.70498
upperneck 16.0882 7.79463 -1.36844
head 6.96273 3.30908 1.07171
rclavicle 6.41578e-014 6.95746e-015
rhumerus -19.1149 0.0122524 -81.3906
rradius 134.089
rwrist -2.15898
rhand -13.2382 21.0952
rfingers 7.12502
rthumb 12.8635 -8.4884
lclavicle 6.41578e-014 6.95746e-015
lhumerus 1.73279 -2.16359 86.7758
lradius 134.94
lwrist 1.51847
lhand -14.262 12.7774
lfingers 7.12502
lthumb 11.8765 42.4206
rfemur -1.53648 4.60544 21.2226
rtibia 46.348
rfoot -26.1308 -17.7601
rtoes -22.6091
lfemur -32.399 -0.537984 -6.53607
ltibia 54.1387
lfoot -9.33611 6.87383
ltoes -51.0396
1140
root -0.448039 16.4565 5.12345 2.67435 -42.2454 1.73591
lowerback 11.5768 2.33482 -2.71831
upperback 1.13669 2.75529 0.468442
thorax -5.45037 1.41175 1.57747
lowerneck -10.6968 5.0201 -5.85138
upperneck 15.6428 8.0489 -1.43151
head 6.36037 3.39907 1.16836
rclavicle -7.90169e-015 -5.1684e-015
rhumerus -20.5097 0.904284 -80.2203
rradius 134.14
rwrist -2.20329
rhand -13.2353 21.0283
rfingers 7.12502
rthumb 12.8663 -8.55515
lclavicle -7.90169e-015 -5.1684e-015
lhumerus -0.333777 -1.59512 87.7341
lradius 135.308
lwrist 1.21103
lhand -13.9681 12.7843
lfingers 7.12502
lthumb 12.1599 42.4109
rfemur -2.05906 4.8192 19.1004
rtibia 48.0427
rfoot -26.4674 -16.9196
rtoes -22.6424
lfemur -31.908 -0.305201 -7.98364
ltibia 53.6212
lfoot -9.42102 6.26299
ltoes -51.0902
1141
root -0.39926 16.4163 5.25049 2.01955 -42.14 2.63287
lowerback 11.483 2.30132 -3.4033
upperback 0.950709 2.62908 0.50111
thorax -5.62087 1.37152 2.01695
lowerneck -9.92093 5.09291 -6.04029
upperneck 15.4045 8.163 -1.80403
head 6.16006 3.42968 1.06023
rclavicle -6.52511e-014 -3.57812e-015
rhumerus -21.004 1.28365 -79.5778
rradius 134.181
rwrist -2.35793
rhand -13.2095 20.9634
rfingers 7.12502
rthumb 12.8912 -8.61845
lclavicle -6.52511e-014 -3.57812e-015
lhumerus -1.42593 -1.40613 88.2297
lradius 135.579
lwrist 0.994331
lhand -14.0693 12.6929
lfingers 7.12502
lthumb 12.0622 42.3252
rfemur -2.59804 4.85775 17.8234
rtibia 49.7976
rfoot -26.6409 -15.7581
rtoes -21.328
lfemur -31.5247 1.22743 -9.50929
ltibia 53.4374
lfoot -9.39748 6.29823
ltoes -54.0104
1142
root -0.349795 16.385 5.37766 2.42245 -41.5229 1.96671
lowerback 11.3709 2.03146 -2.74559
upperback 0.955443 2.37268 0.731314
thorax -5.51953 1.23188 1.93454
lowerneck -9.75384 5.20967 -5.844
upperneck 15.2635 8.33841 -2.23155
head 6.11171 3.4984 0.901374
rclavicle -5.50634e-014 3.97569e-016
rhumerus -21.3744 1.48566 -79.0236
rradius 134.414
rwrist -2.61223
rhand -12.9044 20.8792
rfingers 7.12502
rthumb 13.1853 -8.6839
lclavicle -5.50634e-014 3.97569e-016
lhumerus -1.91487 -1.25298 88.3776
lradius 135.735
lwrist 1.40461
lhand -14.0049 12.7817
lfingers 7.12502
lthumb 12.1244 42.4104
rfemur -3.06208 4.71221 17.9599
rtibia 51.5648
rfoot -26.1521 -14.6361
rtoes -21.2502
lfemur -31.4071 2.30802 -9.66649
ltibia 53.3565
lfoot -9.66319 6.3208
ltoes -54.6029
1143
root -0.301306 16.3781 5.50785 3.31571 -40.6759 0.531017
lowerback 11.2194 1.61922 -1.39891
upperback 1.01168 2.01971 1.13116
thorax -5.32292 1.02945 1.65672
lowerneck -9.54163 5.35359 -5.59595
upperneck 15.0215 8.54826 -2.75551
head 6.03104 3.58451 0.703884
rclavicle -5.23798e-014 -3.57812e-015
rhumerus -21.9301 1.78772 -78.4891
rradius 134.82
rwrist -2.61546
rhand -12.7566 20.9094
rfingers 7.12502
rthumb 13.3278 -8.64439
lclavicle -5.23798e-014 -3.57812e-015
lhumerus -2.1238 -0.778632 88.3651
lradius 135.704
lwrist 2.40565
lhand -13.574 12.4351
lfingers 7.12502
lthumb 12.5398 42.0388
rfemur -3.58605 4.35342 18.7797
rtibia 53.2416
rfoot -24.6263 -13.8474
rtoes -22.3836
lfemur -31.5999 2.50499 -8.88396
ltibia 53.3185
lfoot -9.92746 5.95402
ltoes -54.645
